<mxfile host="app.diagrams.net" modified="2023-06-16T00:34:49.907Z" agent="Mozilla/5.0 (Windows NT 10.0; Win64; x64) AppleWebKit/537.36 (KHTML, like Gecko) Chrome/114.0.0.0 Safari/537.36" etag="d8XIJ1z3K1HCPGMgjxNF" version="21.3.2" type="github">
  <diagram name="Page-1" id="th3D7JrZuM2YKRqH2c6P">
    <mxGraphModel dx="983" dy="430" grid="1" gridSize="10" guides="1" tooltips="1" connect="1" arrows="1" fold="1" page="1" pageScale="1" pageWidth="850" pageHeight="1100" math="0" shadow="0">
      <root>
        <mxCell id="0" />
        <mxCell id="1" parent="0" />
        <mxCell id="5SS7ohR6lfIKNvND81Am-1" value="Controle" style="swimlane;fontStyle=1;align=center;verticalAlign=top;childLayout=stackLayout;horizontal=1;startSize=26;horizontalStack=0;resizeParent=1;resizeParentMax=0;resizeLast=0;collapsible=1;marginBottom=0;whiteSpace=wrap;html=1;" parent="1" vertex="1">
          <mxGeometry x="320" y="38" width="160" height="160" as="geometry" />
        </mxCell>
        <mxCell id="5SS7ohR6lfIKNvND81Am-2" value="banquinho: Banquinho()" style="text;strokeColor=none;fillColor=none;align=left;verticalAlign=top;spacingLeft=4;spacingRight=4;overflow=hidden;rotatable=0;points=[[0,0.5],[1,0.5]];portConstraint=eastwest;whiteSpace=wrap;html=1;" parent="5SS7ohR6lfIKNvND81Am-1" vertex="1">
          <mxGeometry y="26" width="160" height="26" as="geometry" />
        </mxCell>
        <mxCell id="5SS7ohR6lfIKNvND81Am-3" value="" style="line;strokeWidth=1;fillColor=none;align=left;verticalAlign=middle;spacingTop=-1;spacingLeft=3;spacingRight=3;rotatable=0;labelPosition=right;points=[];portConstraint=eastwest;strokeColor=inherit;" parent="5SS7ohR6lfIKNvND81Am-1" vertex="1">
          <mxGeometry y="52" width="160" height="8" as="geometry" />
        </mxCell>
        <mxCell id="5SS7ohR6lfIKNvND81Am-4" value="&lt;div&gt;verifCpf()&lt;/div&gt;&lt;div&gt;addPessoa()&lt;/div&gt;&lt;div&gt;rmPessoa()&lt;/div&gt;&lt;div&gt;sacar()&lt;/div&gt;&lt;div&gt;depositar()&lt;/div&gt;&lt;div&gt;solCredito()&lt;br&gt;&lt;/div&gt;&lt;div&gt;&lt;br&gt;&lt;/div&gt;" style="text;strokeColor=none;fillColor=none;align=left;verticalAlign=top;spacingLeft=4;spacingRight=4;overflow=hidden;rotatable=0;points=[[0,0.5],[1,0.5]];portConstraint=eastwest;whiteSpace=wrap;html=1;" parent="5SS7ohR6lfIKNvND81Am-1" vertex="1">
          <mxGeometry y="60" width="160" height="100" as="geometry" />
        </mxCell>
        <mxCell id="5SS7ohR6lfIKNvND81Am-5" value="Banquinho" style="swimlane;fontStyle=1;align=center;verticalAlign=top;childLayout=stackLayout;horizontal=1;startSize=26;horizontalStack=0;resizeParent=1;resizeParentMax=0;resizeLast=0;collapsible=1;marginBottom=0;whiteSpace=wrap;html=1;" parent="1" vertex="1">
          <mxGeometry x="310" y="290" width="160" height="130" as="geometry" />
        </mxCell>
        <mxCell id="5SS7ohR6lfIKNvND81Am-7" value="" style="line;strokeWidth=1;fillColor=none;align=left;verticalAlign=middle;spacingTop=-1;spacingLeft=3;spacingRight=3;rotatable=0;labelPosition=right;points=[];portConstraint=eastwest;strokeColor=inherit;" parent="5SS7ohR6lfIKNvND81Am-5" vertex="1">
          <mxGeometry y="26" width="160" height="8" as="geometry" />
        </mxCell>
        <mxCell id="5SS7ohR6lfIKNvND81Am-8" value="&lt;div&gt;addClient()&lt;/div&gt;&lt;div&gt;rmClient()&lt;/div&gt;&lt;div&gt;opBancaria()&lt;/div&gt;&lt;div&gt;credito()&lt;/div&gt;&lt;div&gt;listar()&lt;/div&gt;&lt;div&gt;verificador()&lt;br&gt;&lt;/div&gt;" style="text;strokeColor=none;fillColor=none;align=left;verticalAlign=top;spacingLeft=4;spacingRight=4;overflow=hidden;rotatable=0;points=[[0,0.5],[1,0.5]];portConstraint=eastwest;whiteSpace=wrap;html=1;" parent="5SS7ohR6lfIKNvND81Am-5" vertex="1">
          <mxGeometry y="34" width="160" height="96" as="geometry" />
        </mxCell>
        <mxCell id="5SS7ohR6lfIKNvND81Am-9" value="1" style="endArrow=open;html=1;endSize=12;startArrow=diamondThin;startSize=14;startFill=1;edgeStyle=orthogonalEdgeStyle;align=left;verticalAlign=bottom;rounded=0;exitX=0.438;exitY=1.02;exitDx=0;exitDy=0;exitPerimeter=0;entryX=0.5;entryY=0;entryDx=0;entryDy=0;" parent="1" source="5SS7ohR6lfIKNvND81Am-4" target="5SS7ohR6lfIKNvND81Am-5" edge="1">
          <mxGeometry x="-1" y="3" relative="1" as="geometry">
            <mxPoint x="340" y="230" as="sourcePoint" />
            <mxPoint x="500" y="230" as="targetPoint" />
            <Array as="points">
              <mxPoint x="390" y="250" />
              <mxPoint x="390" y="250" />
            </Array>
          </mxGeometry>
        </mxCell>
        <mxCell id="5SS7ohR6lfIKNvND81Am-10" value="Saque" style="swimlane;fontStyle=1;align=center;verticalAlign=top;childLayout=stackLayout;horizontal=1;startSize=26;horizontalStack=0;resizeParent=1;resizeParentMax=0;resizeLast=0;collapsible=1;marginBottom=0;whiteSpace=wrap;html=1;" parent="1" vertex="1">
          <mxGeometry x="660" y="22" width="160" height="78" as="geometry" />
        </mxCell>
        <mxCell id="5SS7ohR6lfIKNvND81Am-11" value="&lt;div&gt;tipo&lt;/div&gt;&lt;div&gt;valor&lt;/div&gt;" style="text;strokeColor=none;fillColor=none;align=left;verticalAlign=top;spacingLeft=4;spacingRight=4;overflow=hidden;rotatable=0;points=[[0,0.5],[1,0.5]];portConstraint=eastwest;whiteSpace=wrap;html=1;" parent="5SS7ohR6lfIKNvND81Am-10" vertex="1">
          <mxGeometry y="26" width="160" height="44" as="geometry" />
        </mxCell>
        <mxCell id="5SS7ohR6lfIKNvND81Am-12" value="" style="line;strokeWidth=1;fillColor=none;align=left;verticalAlign=middle;spacingTop=-1;spacingLeft=3;spacingRight=3;rotatable=0;labelPosition=right;points=[];portConstraint=eastwest;strokeColor=inherit;" parent="5SS7ohR6lfIKNvND81Am-10" vertex="1">
          <mxGeometry y="70" width="160" height="8" as="geometry" />
        </mxCell>
        <mxCell id="5SS7ohR6lfIKNvND81Am-14" value="Deposito" style="swimlane;fontStyle=1;align=center;verticalAlign=top;childLayout=stackLayout;horizontal=1;startSize=26;horizontalStack=0;resizeParent=1;resizeParentMax=0;resizeLast=0;collapsible=1;marginBottom=0;whiteSpace=wrap;html=1;" parent="1" vertex="1">
          <mxGeometry x="660" y="120" width="160" height="78" as="geometry" />
        </mxCell>
        <mxCell id="5SS7ohR6lfIKNvND81Am-15" value="&lt;div&gt;tipo&lt;/div&gt;&lt;div&gt;valor&lt;br&gt;&lt;/div&gt;" style="text;strokeColor=none;fillColor=none;align=left;verticalAlign=top;spacingLeft=4;spacingRight=4;overflow=hidden;rotatable=0;points=[[0,0.5],[1,0.5]];portConstraint=eastwest;whiteSpace=wrap;html=1;" parent="5SS7ohR6lfIKNvND81Am-14" vertex="1">
          <mxGeometry y="26" width="160" height="44" as="geometry" />
        </mxCell>
        <mxCell id="5SS7ohR6lfIKNvND81Am-16" value="" style="line;strokeWidth=1;fillColor=none;align=left;verticalAlign=middle;spacingTop=-1;spacingLeft=3;spacingRight=3;rotatable=0;labelPosition=right;points=[];portConstraint=eastwest;strokeColor=inherit;" parent="5SS7ohR6lfIKNvND81Am-14" vertex="1">
          <mxGeometry y="70" width="160" height="8" as="geometry" />
        </mxCell>
        <mxCell id="5SS7ohR6lfIKNvND81Am-18" value="PagProgramado" style="swimlane;fontStyle=1;align=center;verticalAlign=top;childLayout=stackLayout;horizontal=1;startSize=26;horizontalStack=0;resizeParent=1;resizeParentMax=0;resizeLast=0;collapsible=1;marginBottom=0;whiteSpace=wrap;html=1;" parent="1" vertex="1">
          <mxGeometry x="660" y="240" width="160" height="88" as="geometry" />
        </mxCell>
        <mxCell id="5SS7ohR6lfIKNvND81Am-19" value="&lt;div&gt;tipo&lt;/div&gt;&lt;div&gt;valor&lt;/div&gt;&lt;div&gt;data&lt;br&gt;&lt;/div&gt;" style="text;strokeColor=none;fillColor=none;align=left;verticalAlign=top;spacingLeft=4;spacingRight=4;overflow=hidden;rotatable=0;points=[[0,0.5],[1,0.5]];portConstraint=eastwest;whiteSpace=wrap;html=1;" parent="5SS7ohR6lfIKNvND81Am-18" vertex="1">
          <mxGeometry y="26" width="160" height="54" as="geometry" />
        </mxCell>
        <mxCell id="5SS7ohR6lfIKNvND81Am-20" value="" style="line;strokeWidth=1;fillColor=none;align=left;verticalAlign=middle;spacingTop=-1;spacingLeft=3;spacingRight=3;rotatable=0;labelPosition=right;points=[];portConstraint=eastwest;strokeColor=inherit;" parent="5SS7ohR6lfIKNvND81Am-18" vertex="1">
          <mxGeometry y="80" width="160" height="8" as="geometry" />
        </mxCell>
        <mxCell id="5SS7ohR6lfIKNvND81Am-22" value="SolicitarCredito" style="swimlane;fontStyle=1;align=center;verticalAlign=top;childLayout=stackLayout;horizontal=1;startSize=26;horizontalStack=0;resizeParent=1;resizeParentMax=0;resizeLast=0;collapsible=1;marginBottom=0;whiteSpace=wrap;html=1;" parent="1" vertex="1">
          <mxGeometry x="660" y="350" width="160" height="118" as="geometry" />
        </mxCell>
        <mxCell id="5SS7ohR6lfIKNvND81Am-23" value="&lt;div&gt;nome&lt;/div&gt;&lt;div&gt;tipo&lt;/div&gt;&lt;div&gt;cpf_cnpj&lt;/div&gt;&lt;div&gt;saldo&lt;/div&gt;&lt;div&gt;pedidoDeCredito&lt;br&gt;&lt;/div&gt;" style="text;strokeColor=none;fillColor=none;align=left;verticalAlign=top;spacingLeft=4;spacingRight=4;overflow=hidden;rotatable=0;points=[[0,0.5],[1,0.5]];portConstraint=eastwest;whiteSpace=wrap;html=1;" parent="5SS7ohR6lfIKNvND81Am-22" vertex="1">
          <mxGeometry y="26" width="160" height="84" as="geometry" />
        </mxCell>
        <mxCell id="5SS7ohR6lfIKNvND81Am-24" value="" style="line;strokeWidth=1;fillColor=none;align=left;verticalAlign=middle;spacingTop=-1;spacingLeft=3;spacingRight=3;rotatable=0;labelPosition=right;points=[];portConstraint=eastwest;strokeColor=inherit;" parent="5SS7ohR6lfIKNvND81Am-22" vertex="1">
          <mxGeometry y="110" width="160" height="8" as="geometry" />
        </mxCell>
        <mxCell id="5SS7ohR6lfIKNvND81Am-26" value="Cliente" style="swimlane;fontStyle=1;align=center;verticalAlign=top;childLayout=stackLayout;horizontal=1;startSize=26;horizontalStack=0;resizeParent=1;resizeParentMax=0;resizeLast=0;collapsible=1;marginBottom=0;whiteSpace=wrap;html=1;" parent="1" vertex="1">
          <mxGeometry x="660" y="490" width="160" height="148" as="geometry" />
        </mxCell>
        <mxCell id="5SS7ohR6lfIKNvND81Am-27" value="&lt;div&gt;nome&lt;/div&gt;&lt;div&gt;tipo&lt;/div&gt;&lt;div&gt;cpf_cnpj&lt;/div&gt;&lt;div&gt;telefone&lt;/div&gt;&lt;div&gt;saldo&lt;/div&gt;&lt;div&gt;operaçoes[]&lt;/div&gt;&lt;div&gt;senha&lt;br&gt;&lt;/div&gt;" style="text;strokeColor=none;fillColor=none;align=left;verticalAlign=top;spacingLeft=4;spacingRight=4;overflow=hidden;rotatable=0;points=[[0,0.5],[1,0.5]];portConstraint=eastwest;whiteSpace=wrap;html=1;" parent="5SS7ohR6lfIKNvND81Am-26" vertex="1">
          <mxGeometry y="26" width="160" height="114" as="geometry" />
        </mxCell>
        <mxCell id="5SS7ohR6lfIKNvND81Am-28" value="" style="line;strokeWidth=1;fillColor=none;align=left;verticalAlign=middle;spacingTop=-1;spacingLeft=3;spacingRight=3;rotatable=0;labelPosition=right;points=[];portConstraint=eastwest;strokeColor=inherit;" parent="5SS7ohR6lfIKNvND81Am-26" vertex="1">
          <mxGeometry y="140" width="160" height="8" as="geometry" />
        </mxCell>
        <mxCell id="5SS7ohR6lfIKNvND81Am-30" value="Senha" style="swimlane;fontStyle=1;align=center;verticalAlign=top;childLayout=stackLayout;horizontal=1;startSize=26;horizontalStack=0;resizeParent=1;resizeParentMax=0;resizeLast=0;collapsible=1;marginBottom=0;whiteSpace=wrap;html=1;" parent="1" vertex="1">
          <mxGeometry x="660" y="670" width="160" height="78" as="geometry" />
        </mxCell>
        <mxCell id="5SS7ohR6lfIKNvND81Am-31" value="&lt;div&gt;cpf_cnpj&lt;/div&gt;&lt;div&gt;senha&lt;br&gt;&lt;/div&gt;" style="text;strokeColor=none;fillColor=none;align=left;verticalAlign=top;spacingLeft=4;spacingRight=4;overflow=hidden;rotatable=0;points=[[0,0.5],[1,0.5]];portConstraint=eastwest;whiteSpace=wrap;html=1;" parent="5SS7ohR6lfIKNvND81Am-30" vertex="1">
          <mxGeometry y="26" width="160" height="44" as="geometry" />
        </mxCell>
        <mxCell id="5SS7ohR6lfIKNvND81Am-32" value="" style="line;strokeWidth=1;fillColor=none;align=left;verticalAlign=middle;spacingTop=-1;spacingLeft=3;spacingRight=3;rotatable=0;labelPosition=right;points=[];portConstraint=eastwest;strokeColor=inherit;" parent="5SS7ohR6lfIKNvND81Am-30" vertex="1">
          <mxGeometry y="70" width="160" height="8" as="geometry" />
        </mxCell>
        <mxCell id="5SS7ohR6lfIKNvND81Am-37" value="1" style="endArrow=open;html=1;endSize=12;startArrow=diamondThin;startSize=14;startFill=1;edgeStyle=orthogonalEdgeStyle;align=left;verticalAlign=bottom;rounded=0;exitX=1.006;exitY=0.22;exitDx=0;exitDy=0;entryX=-0.025;entryY=0.114;entryDx=0;entryDy=0;entryPerimeter=0;exitPerimeter=0;" parent="1" source="5SS7ohR6lfIKNvND81Am-4" target="5SS7ohR6lfIKNvND81Am-15" edge="1">
          <mxGeometry x="-1" y="3" relative="1" as="geometry">
            <mxPoint x="290" y="690" as="sourcePoint" />
            <mxPoint x="480" y="510" as="targetPoint" />
          </mxGeometry>
        </mxCell>
        <mxCell id="5SS7ohR6lfIKNvND81Am-38" value="1" style="endArrow=open;html=1;endSize=12;startArrow=diamondThin;startSize=14;startFill=1;edgeStyle=orthogonalEdgeStyle;align=left;verticalAlign=bottom;rounded=0;exitX=1.019;exitY=0.22;exitDx=0;exitDy=0;entryX=0.006;entryY=0.389;entryDx=0;entryDy=0;entryPerimeter=0;exitPerimeter=0;" parent="1" source="5SS7ohR6lfIKNvND81Am-4" target="5SS7ohR6lfIKNvND81Am-19" edge="1">
          <mxGeometry x="-1" y="3" relative="1" as="geometry">
            <mxPoint x="280" y="660" as="sourcePoint" />
            <mxPoint x="440" y="660" as="targetPoint" />
          </mxGeometry>
        </mxCell>
        <mxCell id="5SS7ohR6lfIKNvND81Am-39" value="1" style="endArrow=open;html=1;endSize=12;startArrow=diamondThin;startSize=14;startFill=1;edgeStyle=orthogonalEdgeStyle;align=left;verticalAlign=bottom;rounded=0;entryX=-0.019;entryY=0.318;entryDx=0;entryDy=0;entryPerimeter=0;exitX=1;exitY=0.21;exitDx=0;exitDy=0;exitPerimeter=0;" parent="1" source="5SS7ohR6lfIKNvND81Am-4" target="5SS7ohR6lfIKNvND81Am-31" edge="1">
          <mxGeometry x="-1" y="3" relative="1" as="geometry">
            <mxPoint x="510" y="250" as="sourcePoint" />
            <mxPoint x="425" y="540" as="targetPoint" />
          </mxGeometry>
        </mxCell>
        <mxCell id="5SS7ohR6lfIKNvND81Am-40" value="1" style="endArrow=open;html=1;endSize=12;startArrow=diamondThin;startSize=14;startFill=1;edgeStyle=orthogonalEdgeStyle;align=left;verticalAlign=bottom;rounded=0;exitX=1.019;exitY=0.21;exitDx=0;exitDy=0;entryX=-0.025;entryY=0.579;entryDx=0;entryDy=0;entryPerimeter=0;exitPerimeter=0;" parent="1" source="5SS7ohR6lfIKNvND81Am-4" target="5SS7ohR6lfIKNvND81Am-27" edge="1">
          <mxGeometry x="-1" y="3" relative="1" as="geometry">
            <mxPoint x="290" y="640" as="sourcePoint" />
            <mxPoint x="450" y="640" as="targetPoint" />
          </mxGeometry>
        </mxCell>
        <mxCell id="5SS7ohR6lfIKNvND81Am-41" value="1" style="endArrow=open;html=1;endSize=12;startArrow=diamondThin;startSize=14;startFill=1;edgeStyle=orthogonalEdgeStyle;align=left;verticalAlign=bottom;rounded=0;entryX=-0.006;entryY=0.155;entryDx=0;entryDy=0;entryPerimeter=0;exitX=1.013;exitY=0.21;exitDx=0;exitDy=0;exitPerimeter=0;" parent="1" source="5SS7ohR6lfIKNvND81Am-4" target="5SS7ohR6lfIKNvND81Am-23" edge="1">
          <mxGeometry x="-1" y="3" relative="1" as="geometry">
            <mxPoint x="410" y="430" as="sourcePoint" />
            <mxPoint x="570" y="430" as="targetPoint" />
          </mxGeometry>
        </mxCell>
        <mxCell id="5SS7ohR6lfIKNvND81Am-42" value="1" style="endArrow=open;html=1;endSize=12;startArrow=diamondThin;startSize=14;startFill=1;edgeStyle=orthogonalEdgeStyle;align=left;verticalAlign=bottom;rounded=0;exitX=1;exitY=0.23;exitDx=0;exitDy=0;entryX=-0.006;entryY=0.114;entryDx=0;entryDy=0;entryPerimeter=0;exitPerimeter=0;" parent="1" source="5SS7ohR6lfIKNvND81Am-4" target="5SS7ohR6lfIKNvND81Am-11" edge="1">
          <mxGeometry x="-1" y="3" relative="1" as="geometry">
            <mxPoint x="310" y="660" as="sourcePoint" />
            <mxPoint x="460" y="310" as="targetPoint" />
          </mxGeometry>
        </mxCell>
        <mxCell id="5SS7ohR6lfIKNvND81Am-45" value="ManagerPage" style="swimlane;fontStyle=1;align=center;verticalAlign=top;childLayout=stackLayout;horizontal=1;startSize=26;horizontalStack=0;resizeParent=1;resizeParentMax=0;resizeLast=0;collapsible=1;marginBottom=0;whiteSpace=wrap;html=1;" parent="1" vertex="1">
          <mxGeometry x="40" y="330" width="160" height="90" as="geometry" />
        </mxCell>
        <mxCell id="5SS7ohR6lfIKNvND81Am-47" value="" style="line;strokeWidth=1;fillColor=none;align=left;verticalAlign=middle;spacingTop=-1;spacingLeft=3;spacingRight=3;rotatable=0;labelPosition=right;points=[];portConstraint=eastwest;strokeColor=inherit;" parent="5SS7ohR6lfIKNvND81Am-45" vertex="1">
          <mxGeometry y="26" width="160" height="8" as="geometry" />
        </mxCell>
        <mxCell id="5SS7ohR6lfIKNvND81Am-48" value="&lt;div&gt;handle_focus_in()&lt;/div&gt;&lt;div&gt;checaSenha()&lt;/div&gt;&lt;div&gt;sair()&lt;br&gt;&lt;/div&gt;" style="text;strokeColor=none;fillColor=none;align=left;verticalAlign=top;spacingLeft=4;spacingRight=4;overflow=hidden;rotatable=0;points=[[0,0.5],[1,0.5]];portConstraint=eastwest;whiteSpace=wrap;html=1;" parent="5SS7ohR6lfIKNvND81Am-45" vertex="1">
          <mxGeometry y="34" width="160" height="56" as="geometry" />
        </mxCell>
        <mxCell id="5SS7ohR6lfIKNvND81Am-49" value="GerenciaPage" style="swimlane;fontStyle=1;align=center;verticalAlign=top;childLayout=stackLayout;horizontal=1;startSize=26;horizontalStack=0;resizeParent=1;resizeParentMax=0;resizeLast=0;collapsible=1;marginBottom=0;whiteSpace=wrap;html=1;" parent="1" vertex="1">
          <mxGeometry x="40" y="440" width="180" height="110" as="geometry" />
        </mxCell>
        <mxCell id="5SS7ohR6lfIKNvND81Am-51" value="" style="line;strokeWidth=1;fillColor=none;align=left;verticalAlign=middle;spacingTop=-1;spacingLeft=3;spacingRight=3;rotatable=0;labelPosition=right;points=[];portConstraint=eastwest;strokeColor=inherit;" parent="5SS7ohR6lfIKNvND81Am-49" vertex="1">
          <mxGeometry y="26" width="180" height="8" as="geometry" />
        </mxCell>
        <mxCell id="5SS7ohR6lfIKNvND81Am-52" value="sair()&lt;br&gt;show_frame()&lt;br&gt;remover()&lt;br&gt;attSenha()" style="text;strokeColor=none;fillColor=none;align=left;verticalAlign=top;spacingLeft=4;spacingRight=4;overflow=hidden;rotatable=0;points=[[0,0.5],[1,0.5]];portConstraint=eastwest;whiteSpace=wrap;html=1;" parent="5SS7ohR6lfIKNvND81Am-49" vertex="1">
          <mxGeometry y="34" width="180" height="76" as="geometry" />
        </mxCell>
        <mxCell id="5SS7ohR6lfIKNvND81Am-61" value="StartPage" style="swimlane;fontStyle=1;align=center;verticalAlign=top;childLayout=stackLayout;horizontal=1;startSize=26;horizontalStack=0;resizeParent=1;resizeParentMax=0;resizeLast=0;collapsible=1;marginBottom=0;whiteSpace=wrap;html=1;" parent="1" vertex="1">
          <mxGeometry x="30" y="198" width="160" height="94" as="geometry" />
        </mxCell>
        <mxCell id="5SS7ohR6lfIKNvND81Am-63" value="" style="line;strokeWidth=1;fillColor=none;align=left;verticalAlign=middle;spacingTop=-1;spacingLeft=3;spacingRight=3;rotatable=0;labelPosition=right;points=[];portConstraint=eastwest;strokeColor=inherit;" parent="5SS7ohR6lfIKNvND81Am-61" vertex="1">
          <mxGeometry y="26" width="160" height="8" as="geometry" />
        </mxCell>
        <mxCell id="5SS7ohR6lfIKNvND81Am-64" value="&lt;div&gt;handle_focus_in()&lt;/div&gt;&lt;div&gt;checaSenha()&lt;/div&gt;&lt;div&gt;gerenciar()&lt;br&gt;&lt;/div&gt;" style="text;strokeColor=none;fillColor=none;align=left;verticalAlign=top;spacingLeft=4;spacingRight=4;overflow=hidden;rotatable=0;points=[[0,0.5],[1,0.5]];portConstraint=eastwest;whiteSpace=wrap;html=1;" parent="5SS7ohR6lfIKNvND81Am-61" vertex="1">
          <mxGeometry y="34" width="160" height="60" as="geometry" />
        </mxCell>
        <mxCell id="5SS7ohR6lfIKNvND81Am-65" value="MenuPage" style="swimlane;fontStyle=1;align=center;verticalAlign=top;childLayout=stackLayout;horizontal=1;startSize=26;horizontalStack=0;resizeParent=1;resizeParentMax=0;resizeLast=0;collapsible=1;marginBottom=0;whiteSpace=wrap;html=1;" parent="1" vertex="1">
          <mxGeometry x="30" y="30" width="170" height="120" as="geometry" />
        </mxCell>
        <mxCell id="5SS7ohR6lfIKNvND81Am-67" value="" style="line;strokeWidth=1;fillColor=none;align=left;verticalAlign=middle;spacingTop=-1;spacingLeft=3;spacingRight=3;rotatable=0;labelPosition=right;points=[];portConstraint=eastwest;strokeColor=inherit;" parent="5SS7ohR6lfIKNvND81Am-65" vertex="1">
          <mxGeometry y="26" width="170" height="8" as="geometry" />
        </mxCell>
        <mxCell id="5SS7ohR6lfIKNvND81Am-68" value="sair()&lt;br&gt;extrato()&lt;br&gt;deposito()&lt;br&gt;sacar()&lt;br&gt;show_frame()" style="text;strokeColor=none;fillColor=none;align=left;verticalAlign=top;spacingLeft=4;spacingRight=4;overflow=hidden;rotatable=0;points=[[0,0.5],[1,0.5]];portConstraint=eastwest;whiteSpace=wrap;html=1;" parent="5SS7ohR6lfIKNvND81Am-65" vertex="1">
          <mxGeometry y="34" width="170" height="86" as="geometry" />
        </mxCell>
        <mxCell id="blZUANa4KJlxi0iOj79T-1" value="AddPage" style="swimlane;fontStyle=1;align=center;verticalAlign=top;childLayout=stackLayout;horizontal=1;startSize=26;horizontalStack=0;resizeParent=1;resizeParentMax=0;resizeLast=0;collapsible=1;marginBottom=0;whiteSpace=wrap;html=1;" vertex="1" parent="1">
          <mxGeometry x="50" y="578" width="160" height="60" as="geometry" />
        </mxCell>
        <mxCell id="blZUANa4KJlxi0iOj79T-3" value="" style="line;strokeWidth=1;fillColor=none;align=left;verticalAlign=middle;spacingTop=-1;spacingLeft=3;spacingRight=3;rotatable=0;labelPosition=right;points=[];portConstraint=eastwest;strokeColor=inherit;" vertex="1" parent="blZUANa4KJlxi0iOj79T-1">
          <mxGeometry y="26" width="160" height="8" as="geometry" />
        </mxCell>
        <mxCell id="blZUANa4KJlxi0iOj79T-2" value="addCliente()" style="text;strokeColor=none;fillColor=none;align=left;verticalAlign=top;spacingLeft=4;spacingRight=4;overflow=hidden;rotatable=0;points=[[0,0.5],[1,0.5]];portConstraint=eastwest;whiteSpace=wrap;html=1;" vertex="1" parent="blZUANa4KJlxi0iOj79T-1">
          <mxGeometry y="34" width="160" height="26" as="geometry" />
        </mxCell>
        <mxCell id="blZUANa4KJlxi0iOj79T-5" value="Pag2" style="swimlane;fontStyle=1;align=center;verticalAlign=top;childLayout=stackLayout;horizontal=1;startSize=26;horizontalStack=0;resizeParent=1;resizeParentMax=0;resizeLast=0;collapsible=1;marginBottom=0;whiteSpace=wrap;html=1;" vertex="1" parent="1">
          <mxGeometry x="50" y="690" width="160" height="90" as="geometry" />
        </mxCell>
        <mxCell id="blZUANa4KJlxi0iOj79T-7" value="" style="line;strokeWidth=1;fillColor=none;align=left;verticalAlign=middle;spacingTop=-1;spacingLeft=3;spacingRight=3;rotatable=0;labelPosition=right;points=[];portConstraint=eastwest;strokeColor=inherit;" vertex="1" parent="blZUANa4KJlxi0iOj79T-5">
          <mxGeometry y="26" width="160" height="8" as="geometry" />
        </mxCell>
        <mxCell id="blZUANa4KJlxi0iOj79T-8" value="sair()&lt;br&gt;pagProgram()&lt;br&gt;solCred()" style="text;strokeColor=none;fillColor=none;align=left;verticalAlign=top;spacingLeft=4;spacingRight=4;overflow=hidden;rotatable=0;points=[[0,0.5],[1,0.5]];portConstraint=eastwest;whiteSpace=wrap;html=1;" vertex="1" parent="blZUANa4KJlxi0iOj79T-5">
          <mxGeometry y="34" width="160" height="56" as="geometry" />
        </mxCell>
        <mxCell id="blZUANa4KJlxi0iOj79T-9" value="Pag3" style="swimlane;fontStyle=1;align=center;verticalAlign=top;childLayout=stackLayout;horizontal=1;startSize=26;horizontalStack=0;resizeParent=1;resizeParentMax=0;resizeLast=0;collapsible=1;marginBottom=0;whiteSpace=wrap;html=1;" vertex="1" parent="1">
          <mxGeometry x="55" y="820" width="160" height="90" as="geometry" />
        </mxCell>
        <mxCell id="blZUANa4KJlxi0iOj79T-11" value="" style="line;strokeWidth=1;fillColor=none;align=left;verticalAlign=middle;spacingTop=-1;spacingLeft=3;spacingRight=3;rotatable=0;labelPosition=right;points=[];portConstraint=eastwest;strokeColor=inherit;" vertex="1" parent="blZUANa4KJlxi0iOj79T-9">
          <mxGeometry y="26" width="160" height="8" as="geometry" />
        </mxCell>
        <mxCell id="blZUANa4KJlxi0iOj79T-12" value="sair()&lt;br&gt;atualizarPag()&lt;br&gt;checarCred()" style="text;strokeColor=none;fillColor=none;align=left;verticalAlign=top;spacingLeft=4;spacingRight=4;overflow=hidden;rotatable=0;points=[[0,0.5],[1,0.5]];portConstraint=eastwest;whiteSpace=wrap;html=1;" vertex="1" parent="blZUANa4KJlxi0iOj79T-9">
          <mxGeometry y="34" width="160" height="56" as="geometry" />
        </mxCell>
        <mxCell id="blZUANa4KJlxi0iOj79T-14" value="" style="endArrow=diamondThin;endFill=1;endSize=24;html=1;rounded=0;entryX=0.831;entryY=1.027;entryDx=0;entryDy=0;entryPerimeter=0;exitX=0.75;exitY=0;exitDx=0;exitDy=0;" edge="1" parent="1" source="5SS7ohR6lfIKNvND81Am-61" target="5SS7ohR6lfIKNvND81Am-68">
          <mxGeometry width="160" relative="1" as="geometry">
            <mxPoint x="120" y="250" as="sourcePoint" />
            <mxPoint x="280" y="250" as="targetPoint" />
          </mxGeometry>
        </mxCell>
        <mxCell id="blZUANa4KJlxi0iOj79T-16" value="" style="endArrow=diamondThin;endFill=1;endSize=24;html=1;rounded=0;entryX=0.615;entryY=1.035;entryDx=0;entryDy=0;entryPerimeter=0;exitX=0.5;exitY=0;exitDx=0;exitDy=0;" edge="1" parent="1" source="5SS7ohR6lfIKNvND81Am-45" target="5SS7ohR6lfIKNvND81Am-64">
          <mxGeometry width="160" relative="1" as="geometry">
            <mxPoint x="195" y="240" as="sourcePoint" />
            <mxPoint x="211" y="212" as="targetPoint" />
          </mxGeometry>
        </mxCell>
        <mxCell id="blZUANa4KJlxi0iOj79T-17" value="" style="edgeStyle=orthogonalEdgeStyle;rounded=0;orthogonalLoop=1;jettySize=auto;html=1;" edge="1" parent="1" source="5SS7ohR6lfIKNvND81Am-64" target="5SS7ohR6lfIKNvND81Am-7">
          <mxGeometry relative="1" as="geometry" />
        </mxCell>
        <mxCell id="blZUANa4KJlxi0iOj79T-18" value="" style="endArrow=diamondThin;endFill=1;endSize=24;html=1;rounded=0;entryX=1;entryY=0.5;entryDx=0;entryDy=0;exitX=0.963;exitY=0.007;exitDx=0;exitDy=0;exitPerimeter=0;" edge="1" parent="1" source="5SS7ohR6lfIKNvND81Am-49" target="5SS7ohR6lfIKNvND81Am-48">
          <mxGeometry width="160" relative="1" as="geometry">
            <mxPoint x="205" y="250" as="sourcePoint" />
            <mxPoint x="221" y="222" as="targetPoint" />
          </mxGeometry>
        </mxCell>
        <mxCell id="blZUANa4KJlxi0iOj79T-19" value="" style="endArrow=diamondThin;endFill=1;endSize=24;html=1;rounded=0;entryX=0.715;entryY=0.94;entryDx=0;entryDy=0;entryPerimeter=0;exitX=0.679;exitY=0.005;exitDx=0;exitDy=0;exitPerimeter=0;" edge="1" parent="1" source="blZUANa4KJlxi0iOj79T-5" target="blZUANa4KJlxi0iOj79T-2">
          <mxGeometry width="160" relative="1" as="geometry">
            <mxPoint x="215" y="260" as="sourcePoint" />
            <mxPoint x="231" y="232" as="targetPoint" />
          </mxGeometry>
        </mxCell>
        <mxCell id="blZUANa4KJlxi0iOj79T-20" value="" style="endArrow=diamondThin;endFill=1;endSize=24;html=1;rounded=0;entryX=0.611;entryY=1.003;entryDx=0;entryDy=0;entryPerimeter=0;" edge="1" parent="1" source="blZUANa4KJlxi0iOj79T-1" target="5SS7ohR6lfIKNvND81Am-52">
          <mxGeometry width="160" relative="1" as="geometry">
            <mxPoint x="225" y="270" as="sourcePoint" />
            <mxPoint x="241" y="242" as="targetPoint" />
          </mxGeometry>
        </mxCell>
        <mxCell id="blZUANa4KJlxi0iOj79T-21" value="" style="endArrow=diamondThin;endFill=1;endSize=24;html=1;rounded=0;entryX=0.608;entryY=1.012;entryDx=0;entryDy=0;entryPerimeter=0;exitX=0.5;exitY=0;exitDx=0;exitDy=0;" edge="1" parent="1" source="blZUANa4KJlxi0iOj79T-9" target="blZUANa4KJlxi0iOj79T-8">
          <mxGeometry width="160" relative="1" as="geometry">
            <mxPoint x="174" y="630" as="sourcePoint" />
            <mxPoint x="216" y="609" as="targetPoint" />
          </mxGeometry>
        </mxCell>
      </root>
    </mxGraphModel>
  </diagram>
</mxfile>
